<mxfile host="app.diagrams.net" modified="2024-01-17T07:12:45.836Z" agent="Mozilla/5.0 (Windows NT 10.0; Win64; x64) AppleWebKit/537.36 (KHTML, like Gecko) Chrome/120.0.0.0 Safari/537.36" etag="WuDOId7cPqUFCcZGlVQt" version="22.1.20" type="device">
  <diagram name="Page-1" id="rc0uClVn3gRNKsO3K7OQ">
    <mxGraphModel dx="1434" dy="746" grid="1" gridSize="10" guides="1" tooltips="1" connect="1" arrows="1" fold="1" page="1" pageScale="1" pageWidth="850" pageHeight="1100" math="0" shadow="0">
      <root>
        <mxCell id="0" />
        <mxCell id="1" parent="0" />
        <mxCell id="KmxPRvAj4UWwm7iY_j5c-1" value="A" style="rounded=0;whiteSpace=wrap;html=1;" vertex="1" parent="1">
          <mxGeometry x="160" y="210" width="80" height="50" as="geometry" />
        </mxCell>
        <mxCell id="KmxPRvAj4UWwm7iY_j5c-2" value="B" style="rounded=0;whiteSpace=wrap;html=1;" vertex="1" parent="1">
          <mxGeometry x="240" y="210" width="80" height="50" as="geometry" />
        </mxCell>
        <mxCell id="KmxPRvAj4UWwm7iY_j5c-3" value="C" style="rounded=0;whiteSpace=wrap;html=1;" vertex="1" parent="1">
          <mxGeometry x="320" y="210" width="80" height="50" as="geometry" />
        </mxCell>
        <mxCell id="KmxPRvAj4UWwm7iY_j5c-8" style="edgeStyle=orthogonalEdgeStyle;rounded=0;orthogonalLoop=1;jettySize=auto;html=1;exitX=0;exitY=0;exitDx=0;exitDy=0;entryX=0;entryY=0;entryDx=0;entryDy=0;curved=1;dashed=1;" edge="1" parent="1" source="KmxPRvAj4UWwm7iY_j5c-4" target="KmxPRvAj4UWwm7iY_j5c-6">
          <mxGeometry relative="1" as="geometry" />
        </mxCell>
        <mxCell id="KmxPRvAj4UWwm7iY_j5c-4" value="D" style="rounded=0;whiteSpace=wrap;html=1;dashed=1;" vertex="1" parent="1">
          <mxGeometry x="400" y="210" width="80" height="50" as="geometry" />
        </mxCell>
        <mxCell id="KmxPRvAj4UWwm7iY_j5c-6" value="unuse space" style="rounded=0;whiteSpace=wrap;html=1;" vertex="1" parent="1">
          <mxGeometry x="480" y="210" width="310" height="50" as="geometry" />
        </mxCell>
        <mxCell id="KmxPRvAj4UWwm7iY_j5c-7" value="&lt;font style=&quot;font-size: 16px;&quot;&gt;NextObjPtr&lt;/font&gt;" style="endArrow=classic;html=1;rounded=0;" edge="1" parent="1">
          <mxGeometry width="50" height="50" relative="1" as="geometry">
            <mxPoint x="400" y="150" as="sourcePoint" />
            <mxPoint x="400" y="210" as="targetPoint" />
          </mxGeometry>
        </mxCell>
        <mxCell id="KmxPRvAj4UWwm7iY_j5c-9" value="&lt;font style=&quot;font-size: 16px;&quot;&gt;第0代&lt;/font&gt;" style="shape=crossbar;whiteSpace=wrap;html=1;rounded=1;labelPosition=center;verticalLabelPosition=bottom;align=center;verticalAlign=top;" vertex="1" parent="1">
          <mxGeometry x="160" y="290" width="320" height="20" as="geometry" />
        </mxCell>
        <mxCell id="KmxPRvAj4UWwm7iY_j5c-10" value="&lt;font style=&quot;font-size: 16px;&quot;&gt;第0代内存&amp;gt;=N,触发第0代GC&lt;/font&gt;" style="shape=flexArrow;endArrow=classic;html=1;rounded=0;" edge="1" parent="1">
          <mxGeometry width="50" height="50" relative="1" as="geometry">
            <mxPoint x="425" y="350" as="sourcePoint" />
            <mxPoint x="425" y="410" as="targetPoint" />
          </mxGeometry>
        </mxCell>
        <mxCell id="KmxPRvAj4UWwm7iY_j5c-11" value="A" style="rounded=0;whiteSpace=wrap;html=1;fillColor=#dae8fc;strokeColor=#6c8ebf;" vertex="1" parent="1">
          <mxGeometry x="160" y="490" width="80" height="50" as="geometry" />
        </mxCell>
        <mxCell id="KmxPRvAj4UWwm7iY_j5c-12" value="B" style="rounded=0;whiteSpace=wrap;html=1;dashed=1;" vertex="1" parent="1">
          <mxGeometry x="240" y="490" width="80" height="50" as="geometry" />
        </mxCell>
        <mxCell id="KmxPRvAj4UWwm7iY_j5c-19" value="&lt;font style=&quot;font-size: 16px;&quot;&gt;move&lt;/font&gt;" style="edgeStyle=orthogonalEdgeStyle;rounded=0;orthogonalLoop=1;jettySize=auto;html=1;exitX=0;exitY=0;exitDx=0;exitDy=0;entryX=0;entryY=0;entryDx=0;entryDy=0;curved=1;" edge="1" parent="1" source="KmxPRvAj4UWwm7iY_j5c-13" target="KmxPRvAj4UWwm7iY_j5c-12">
          <mxGeometry relative="1" as="geometry" />
        </mxCell>
        <mxCell id="KmxPRvAj4UWwm7iY_j5c-13" value="C" style="rounded=0;whiteSpace=wrap;html=1;fillColor=#dae8fc;strokeColor=#6c8ebf;" vertex="1" parent="1">
          <mxGeometry x="320" y="490" width="80" height="50" as="geometry" />
        </mxCell>
        <mxCell id="KmxPRvAj4UWwm7iY_j5c-15" value="D" style="rounded=0;whiteSpace=wrap;html=1;fillColor=#dae8fc;strokeColor=#6c8ebf;" vertex="1" parent="1">
          <mxGeometry x="400" y="490" width="80" height="50" as="geometry" />
        </mxCell>
        <mxCell id="KmxPRvAj4UWwm7iY_j5c-16" value="unuse space" style="rounded=0;whiteSpace=wrap;html=1;" vertex="1" parent="1">
          <mxGeometry x="480" y="490" width="310" height="50" as="geometry" />
        </mxCell>
        <mxCell id="KmxPRvAj4UWwm7iY_j5c-17" value="&lt;font style=&quot;font-size: 16px;&quot;&gt;NextObjPtr&lt;/font&gt;" style="endArrow=classic;html=1;rounded=0;" edge="1" parent="1">
          <mxGeometry width="50" height="50" relative="1" as="geometry">
            <mxPoint x="479" y="430" as="sourcePoint" />
            <mxPoint x="479" y="490" as="targetPoint" />
          </mxGeometry>
        </mxCell>
        <mxCell id="KmxPRvAj4UWwm7iY_j5c-18" value="&lt;font style=&quot;font-size: 16px;&quot;&gt;第0代&lt;/font&gt;" style="shape=crossbar;whiteSpace=wrap;html=1;rounded=1;labelPosition=center;verticalLabelPosition=bottom;align=center;verticalAlign=top;" vertex="1" parent="1">
          <mxGeometry x="160" y="570" width="320" height="20" as="geometry" />
        </mxCell>
        <mxCell id="KmxPRvAj4UWwm7iY_j5c-20" value="&lt;font style=&quot;font-size: 16px;&quot;&gt;move&lt;/font&gt;" style="edgeStyle=orthogonalEdgeStyle;rounded=0;orthogonalLoop=1;jettySize=auto;html=1;exitX=1;exitY=0;exitDx=0;exitDy=0;entryX=0;entryY=0;entryDx=0;entryDy=0;curved=1;" edge="1" parent="1" source="KmxPRvAj4UWwm7iY_j5c-13" target="KmxPRvAj4UWwm7iY_j5c-13">
          <mxGeometry relative="1" as="geometry">
            <Array as="points">
              <mxPoint x="400" y="470" />
              <mxPoint x="320" y="470" />
            </Array>
          </mxGeometry>
        </mxCell>
        <mxCell id="KmxPRvAj4UWwm7iY_j5c-21" value="&lt;font style=&quot;font-size: 16px;&quot;&gt;新增GC object D&lt;/font&gt;" style="text;strokeColor=none;align=center;fillColor=none;html=1;verticalAlign=middle;whiteSpace=wrap;rounded=0;" vertex="1" parent="1">
          <mxGeometry y="220" width="130" height="30" as="geometry" />
        </mxCell>
        <mxCell id="KmxPRvAj4UWwm7iY_j5c-22" value="&lt;font style=&quot;font-size: 16px;&quot;&gt;标记引用的对象，删除未标记的，并执行压缩&lt;/font&gt;" style="text;strokeColor=none;align=center;fillColor=none;html=1;verticalAlign=middle;whiteSpace=wrap;rounded=0;" vertex="1" parent="1">
          <mxGeometry y="490" width="130" height="30" as="geometry" />
        </mxCell>
        <mxCell id="KmxPRvAj4UWwm7iY_j5c-23" value="" style="shape=flexArrow;endArrow=classic;html=1;rounded=0;" edge="1" parent="1">
          <mxGeometry width="50" height="50" relative="1" as="geometry">
            <mxPoint x="425" y="610" as="sourcePoint" />
            <mxPoint x="425" y="670" as="targetPoint" />
          </mxGeometry>
        </mxCell>
        <mxCell id="KmxPRvAj4UWwm7iY_j5c-24" value="A" style="rounded=0;whiteSpace=wrap;html=1;fillColor=#dae8fc;strokeColor=#6c8ebf;" vertex="1" parent="1">
          <mxGeometry x="160" y="720" width="80" height="50" as="geometry" />
        </mxCell>
        <mxCell id="KmxPRvAj4UWwm7iY_j5c-27" value="C" style="rounded=0;whiteSpace=wrap;html=1;fillColor=#dae8fc;strokeColor=#6c8ebf;" vertex="1" parent="1">
          <mxGeometry x="240" y="720" width="80" height="50" as="geometry" />
        </mxCell>
        <mxCell id="KmxPRvAj4UWwm7iY_j5c-28" value="D" style="rounded=0;whiteSpace=wrap;html=1;fillColor=#dae8fc;strokeColor=#6c8ebf;" vertex="1" parent="1">
          <mxGeometry x="320" y="720" width="80" height="50" as="geometry" />
        </mxCell>
        <mxCell id="KmxPRvAj4UWwm7iY_j5c-29" value="unuse space" style="rounded=0;whiteSpace=wrap;html=1;" vertex="1" parent="1">
          <mxGeometry x="400" y="720" width="390" height="50" as="geometry" />
        </mxCell>
        <mxCell id="KmxPRvAj4UWwm7iY_j5c-30" value="&lt;font style=&quot;font-size: 16px;&quot;&gt;第1代&lt;/font&gt;" style="shape=crossbar;whiteSpace=wrap;html=1;rounded=1;labelPosition=center;verticalLabelPosition=bottom;align=center;verticalAlign=top;" vertex="1" parent="1">
          <mxGeometry x="160" y="800" width="240" height="20" as="geometry" />
        </mxCell>
        <mxCell id="KmxPRvAj4UWwm7iY_j5c-32" value="&lt;font style=&quot;font-size: 16px;&quot;&gt;NextObjPtr&lt;/font&gt;" style="endArrow=classic;html=1;rounded=0;" edge="1" parent="1">
          <mxGeometry width="50" height="50" relative="1" as="geometry">
            <mxPoint x="399" y="660" as="sourcePoint" />
            <mxPoint x="399" y="720" as="targetPoint" />
          </mxGeometry>
        </mxCell>
        <mxCell id="KmxPRvAj4UWwm7iY_j5c-33" value="&lt;font style=&quot;font-size: 16px;&quot;&gt;第0代GC完成，第0代变第1代&lt;/font&gt;" style="text;strokeColor=none;align=center;fillColor=none;html=1;verticalAlign=middle;whiteSpace=wrap;rounded=0;" vertex="1" parent="1">
          <mxGeometry x="10" y="730" width="130" height="30" as="geometry" />
        </mxCell>
      </root>
    </mxGraphModel>
  </diagram>
</mxfile>
